<svg xmlns="http://www.w3.org/2000/svg" width="97" height="97" viewBox="0 0 97 97"><path fill="#DDD" d="M0 0h97v97H0z"/><path fill="#FFF" d="M5 5h21v21H5zm22 0h21v21H27zm22 0h21v21H49z"/><path fill="#DDD" d="M71 5h21v21H71z"/><path fill="#FFF" d="M5 27h21v21H5z"/><path fill="#DDD" d="M27 27h21v21H27z"/><path fill="#FFF" d="M49 27h21v21H49zm22 0h21v21H71zM5 49h21v21H5zm22 0h21v21H27z"/><path fill="#DDD" d="M49 49h21v21H49z"/><path fill="#FFF" d="M71 49h21v21H71z"/><path fill="#DDD" d="M5 71h21v21H5z"/><path fill="#FFF" d="M27 71h21v21H27zm22 0h21v21H49zm22 0h21v21H71z"/></svg>
