<svg xmlns="http://www.w3.org/2000/svg" width="97" height="97" viewBox="0 0 97 97"><path fill="#797987" d="M2.5 2.5h92v92h-92z"/><path d="M92 5v87H5V5h87m5-5H0v97h97V0z"/><path fill="#FFF" d="M5 5h21v21H5zm22 0h21v21H27zm22 0h21v21H49z"/><path d="M71 5h21v21H71z"/><path fill="#FFF" d="M5 27h21v21H5z"/><path d="M27 27h21v21H27z"/><path fill="#FFF" d="M49 27h21v21H49zm22 0h21v21H71zM5 49h21v21H5zm22 0h21v21H27z"/><path d="M49 49h21v21H49z"/><path fill="#FFF" d="M71 49h21v21H71z"/><path d="M5 71h21v21H5z"/><path fill="#FFF" d="M27 71h21v21H27zm22 0h21v21H49zm22 0h21v21H71z"/></svg>
