<svg xmlns="http://www.w3.org/2000/svg" width="97" height="97" viewBox="0 0 97 97"><path d="M2.5 2.5h92v92h-92zM92 5v87H5V5h87m5-5H0v97h97V0z" fill="#FFF"/><path fill="#4083FB" d="M5 5h21v21H5zm22 0h21v21H27zm22 0h21v21H49zm22 0h21v21H71zM5 27h21v21H5z"/><path fill="#183167" d="M27 27h43v43H27z"/><path fill="#4083FB" d="M71 27h21v21H71zM5 49h21v21H5zm66 0h21v21H71zM5 71h21v21H5zm22 0h21v21H27zm22 0h21v21H49zm22 0h21v21H71z"/><path fill="#FFF" d="M63.29 44.68c-.057-.182-.215-.315-.404-.342l-9.633-1.373-4.306-8.562c-.17-.338-.724-.338-.894 0l-4.306 8.562-9.633 1.373c-.19.027-.347.16-.405.342s-.01.382.13.514l6.96 6.664-1.65 9.405c-.04.187.04.376.19.49.08.062.19.096.29.096.08 0 .15-.02.23-.06l8.62-4.45 8.61 4.44c.07.03.15.05.23.05h.02c.27 0 .5-.23.5-.5 0-.08-.02-.16-.06-.22l-1.62-9.27 6.97-6.67c.14-.13.19-.33.13-.51z"/></svg>
